<?xml version="1.0" encoding="UTF-8" standalone="no"?>
<!DOCTYPE svg PUBLIC "-//W3C//DTD SVG 1.1//EN" "http://www.w3.org/Graphics/SVG/1.1/DTD/svg11.dtd">
<svg width="100%" height="100%" viewBox="0 0 148 36" version="1.1" xmlns="http://www.w3.org/2000/svg" xmlns:xlink="http://www.w3.org/1999/xlink" xml:space="preserve" xmlns:serif="http://www.serif.com/" style="fill-rule:evenodd;clip-rule:evenodd;stroke-linejoin:round;stroke-miterlimit:2;">
    <g transform="matrix(1,0,0,1,-1553.89,-1314.92)">
        <g transform="matrix(0.666667,0,0,0.666667,625,500)">
            <clipPath id="_clip1">
                <path d="M1650,1162.5L1605.43,1162.5C1605.43,1124.98 1575.02,1094.57 1537.5,1094.57C1499.98,1094.57 1469.57,1124.98 1469.57,1162.5L1425,1162.5C1425,1100.37 1475.37,1050 1537.5,1050C1599.63,1050 1650,1100.37 1650,1162.5Z"/>
            </clipPath>
            <g clip-path="url(#_clip1)">
                <g transform="matrix(1.5,-0,-0,1.5,1393.33,1222.38)">
                </g>
            </g>
            <path d="M1650,1162.5L1605.43,1162.5C1605.43,1124.98 1575.02,1094.57 1537.5,1094.57C1499.98,1094.57 1469.57,1124.98 1469.57,1162.5L1425,1162.5C1425,1100.37 1475.37,1050 1537.5,1050C1599.63,1050 1650,1100.37 1650,1162.5ZM1648.59,1161.1C1647.84,1100.39 1598.39,1051.4 1537.5,1051.4C1476.61,1051.4 1427.16,1100.39 1426.41,1161.1L1468.17,1161.1C1468.92,1123.45 1499.67,1093.16 1537.5,1093.16C1575.33,1093.16 1606.08,1123.45 1606.83,1161.1L1648.59,1161.1Z"/>
        </g>
        <g transform="matrix(1,0,0,1,-28,18.324)">
            <text x="1579.81px" y="1331.68px" style="font-family:'Arial-BoldMT', 'Arial';font-weight:700;font-size:50px;">con</text>
            <text x="1668.7px" y="1331.68px" style="font-family:'Arial-BoldMT', 'Arial';font-weight:700;font-size:50px;fill:url(#_Linear2);">t</text>
            <text x="1685.35px" y="1331.68px" style="font-family:'Arial-BoldMT', 'Arial';font-weight:700;font-size:50px;">x</text>
            <g transform="matrix(50,0,0,50,1729.81,1331.68)">
            </g>
            <text x="1713.16px" y="1331.68px" style="font-family:'Arial-BoldMT', 'Arial';font-weight:700;font-size:50px;fill:url(#_Linear3);">t</text>
        </g>
    </g>
    <defs>
        <linearGradient id="_Linear2" x1="0" y1="0" x2="1" y2="0" gradientUnits="userSpaceOnUse" gradientTransform="matrix(7.34788e-16,12,-12,7.34788e-16,1678,1310.68)"><stop offset="0" style="stop-color:rgb(41,40,182);stop-opacity:1"/><stop offset="1" style="stop-color:rgb(8,7,120);stop-opacity:1"/></linearGradient>
        <linearGradient id="_Linear3" x1="0" y1="0" x2="1" y2="0" gradientUnits="userSpaceOnUse" gradientTransform="matrix(5.97015e-16,9.75,-9.75,5.97015e-16,1723,1312.93)"><stop offset="0" style="stop-color:rgb(170,52,52);stop-opacity:1"/><stop offset="1" style="stop-color:rgb(113,14,14);stop-opacity:1"/></linearGradient>
    </defs>
</svg>
